<?xml version="1.0" encoding="UTF-8"?>
<svg id="Layer_1" xmlns="http://www.w3.org/2000/svg" version="1.1" viewBox="0 0 160 160">
  <!-- Generator: Adobe Illustrator 29.6.1, SVG Export Plug-In . SVG Version: 2.1.1 Build 9)  -->
  <defs>
    <style>
      .st0 {
        fill: #1b1464;
      }
    </style>
  </defs>
  <path class="st0" d="M86.81,38.5c7.91-8.71,21.39-9.36,30.1-1.45l18.83-20.73C115.58-1.99,84.39-.49,66.08,19.67c-18.31,20.16-16.81,51.35,3.35,69.66l18.83-20.73c-8.71-7.91-9.36-21.39-1.45-30.1Z"/>
  <path class="st0" d="M93.92,140.33c18.31-20.16,16.81-51.35-3.35-69.66l-18.83,20.73c8.71,7.91,9.36,21.39,1.45,30.1-7.91,8.71-21.39,9.36-30.1,1.45l-18.83,20.73c20.16,18.31,51.35,16.81,69.66-3.35Z"/>
  <circle class="st0" cx="102.58" cy="52.82" r="17.47"/>
  <circle class="st0" cx="57.42" cy="107.18" r="17.47"/>
</svg>